<svg version="1.1" id="Layer_1" xmlns="http://www.w3.org/2000/svg" xmlns:xlink="http://www.w3.org/1999/xlink" x="0px" y="0px" viewBox="0 0 323.1 209.1" style="enable-background:new 0 0 323.1 209.1;" xml:space="preserve">
 <style type="text/css">
  .st0{fill:#FFFFFF;}
	.st1{fill:#0269A7;}
	.st2{fill:#0BA3D9;}
	.st3{fill:#81142E;}
	.st4{fill:#D0223A;}
 </style>
 <g>
  <path class="st0" d="M234.2,59.1c-0.7,0.4-2.3,0.8-4.5,0.8c-6.3,0-9.8-4.3-9.8-9.8c0-6.5,4.6-10,10.3-10c2.2,0,3.4,0.4,4.1,0.8
		l-0.7,3.9c-0.8-0.4-1.7-0.7-3.2-0.7c-2.7,0-5.6,1.6-5.6,5.9c0,3.8,2.3,5.9,5.6,5.9c1.3,0,2.2-0.3,3.2-0.7">
  </path>
  <path class="st0" d="M255.5,53.7c0.2,1.8,1.6,2.7,3.9,2.8c1.4,0,3-0.4,4.1-1l0.6,3.3c-1.6,0.8-3.5,1.1-5.3,1.1c-5,0-7.8-3-7.8-7.7
		c0-4.5,2.9-7.4,7.3-7.4c4.5,0,6.5,3.3,6.5,7.4c0,0.4-0.1,1.1-0.1,1.5H255.5 M260.6,50.7c0-1-0.5-2.9-2.5-2.9
		c-1.7,0-2.5,1.5-2.7,2.9H260.6z">
  </path>
  <polyline class="st0" points="269.8,59.3 265.1,45.4 269.8,45.4 272.3,55.3 272.4,55.3 275,45.4 279.6,45.4 274.9,59.3 	">
  </polyline>
  <path class="st0" d="M280.8,50c0-2-0.1-3.4-0.2-4.6h4l0.1,2.6h0.1c0.7-2,2-2.8,3.4-2.9c0.7,0,1,0,1.4,0.1v4.1
		c-0.4-0.1-1.2-0.2-1.7-0.1c-1.6,0.1-2.6,1.3-2.9,2.7c-0.1,0.3-0.1,0.6-0.1,1v6.5h-4.2">
  </path>
  <path class="st0" d="M304.6,52.4c0,4.6-2.7,7.5-7.2,7.5c-4.4,0-7.2-3-7.2-7.5c0-4.6,2.7-7.5,7.2-7.5
		C301.9,44.8,304.6,47.8,304.6,52.4 M300.2,52.4c0-2.3-0.8-4.2-2.8-4.2c-2,0-2.8,2-2.8,4.2c0,2.3,0.8,4.2,2.8,4.2
		C299.5,56.6,300.2,54.6,300.2,52.4">
  </path>
  <path class="st0" d="M306.5,49.8c0-1.7-0.1-3.2-0.2-4.4h4l0.1,1.9h0.1c0.6-0.9,2-2.4,4.3-2.4c2.8,0,4.6,1.9,4.6,6v8.4h-4.2v-7.7
		c0-1.8-0.6-3-2.1-3c-1.2,0-1.9,0.8-2.2,1.6c-0.1,0.3-0.1,0.7-0.1,1.1v8h-4.2">
  </path>
  <path class="st0" d="M244.6,45c-1.7,0-3.3,0.8-4.1,2h-0.1v-6.8l-4.2,1.5v17.7h4.2v-8.3c0-1.2,0.8-2.5,2.3-2.5
		c1.6,0,2.2,1.2,2.2,3.1v7.7h4.2v-8.2C249.1,46.9,247.3,45,244.6,45">
  </path>
  <polyline class="st1" points="220,63 220,96.2 269.7,79.6 	">
  </polyline>
  <polyline class="st2" points="220,96.2 269.7,112.8 319.4,96.2 319.4,63 269.7,79.6 	">
  </polyline>
  <polyline class="st3" points="220,101.6 220,134.7 269.7,118.1 	">
  </polyline>
  <polyline class="st4" points="220,134.7 269.7,151.3 319.4,134.7 319.4,101.6 269.7,118.1 	">
  </polyline>
  <path class="st0" d="M0,131.2v-0.1c0-9.7,6.9-17.3,16.7-17.3c11.4,0,16.7,8.4,16.7,18.1c0,0.7,0,1.6-0.1,2.4H11.2
		c0.9,3.6,3.6,5.5,7.2,5.5c2.8,0,5-1,7.4-3.4l6.4,5.3c-3.2,4-7.8,6.7-14.3,6.7C7.4,148.4,0,141.4,0,131.2 M22.5,128.3
		c-0.4-3.7-2.6-6-5.8-6c-3.1,0-5.1,2.3-5.8,6H22.5z">
  </path>
  <path class="st0" d="M36.9,114.5h11.6v4.7c2.1-2.8,5.2-5.4,9.9-5.4c7,0,11.3,4.7,11.3,12.2v21.7H58.1v-18c0-3.7-1.9-5.6-4.7-5.6
		c-2.8,0-4.9,2-4.9,5.6v18H36.9">
  </path>
  <path class="st0" d="M72.9,131.2v-0.1c0-9.7,6.9-17.3,16.7-17.3c11.4,0,16.7,8.4,16.7,18.1c0,0.7,0,1.6-0.1,2.4H84.1
		c0.9,3.6,3.6,5.5,7.2,5.5c2.8,0,5-1,7.4-3.4l6.4,5.3c-3.2,4-7.8,6.7-14.3,6.7C80.3,148.4,72.9,141.4,72.9,131.2 M95.5,128.3
		c-0.4-3.7-2.6-6-5.8-6c-3.1,0-5.1,2.3-5.8,6H95.5z">
  </path>
  <path class="st0" d="M109.8,114.5h11.6v6.7c1.9-4.5,5-7.5,10.5-7.2v12.3h-1c-6.1,0-9.5,3.5-9.5,11.1v10.4h-11.6">
  </path>
  <path class="st0" d="M133.6,153.8l3.7-7.7c3.6,2,7.1,3.1,11.6,3.1c5.8,0,8.6-2.9,8.6-8.2v-1.3c-2.3,2.7-5.4,5-10.2,5
		c-8.2,0-14.8-5.9-14.8-15.4v-0.1c0-9.6,6.7-15.4,14.3-15.4c5,0,8,2,10.4,4.7v-3.9h11.6v25.2c0,6.1-1.3,10.4-4.3,13.2
		c-3,3.1-7.7,4.7-14.6,4.7C143.8,157.6,138.4,156.2,133.6,153.8 M157.7,129.3v-0.1c0-3.7-2.9-6.4-6.8-6.4c-4,0-6.8,2.8-6.8,6.5v0.1
		c0,3.7,2.8,6.4,6.8,6.4S157.7,133,157.7,129.3">
  </path>
  <path class="st0" d="M196.4,114.5h11.9l-12.1,32.4c-2.9,7.8-6,10.8-12.6,10.8c-4.1,0-7.5-1.1-10.6-2.9l3.6-8.1
		c1.9,1.1,3.8,1.8,5.1,1.8c1.2,0,2-0.3,2.8-1.3l-13-32.5h12.1l6.6,20">
  </path>
  <path class="st0" d="M111.2,34.4V20.9h-3.9v-9.3h3.9V3.2h11.6v8.4h7.7v9.3h-7.7v11.3c0,2.3,1,3.3,3.2,3.3c1.5,0,3-0.4,4.4-1.1v9.1
		c-2.1,1.2-4.8,2-8.1,2C115.3,45.4,111.2,42.3,111.2,34.4">
  </path>
  <path class="st0" d="M134,0h11.6v16.1c2.1-2.8,5.2-5.3,9.9-5.3c7,0,11.3,4.7,11.3,12.2v21.7h-11.6v-18c0-3.7-1.9-5.6-4.7-5.6
		c-2.8,0-4.9,2-4.9,5.6v18H134">
  </path>
  <path class="st0" d="M170,28.3v-0.1c0-9.7,6.9-17.3,16.7-17.3c11.4,0,16.7,8.4,16.7,18.1c0,0.7,0,1.6-0.1,2.4h-22.2
		c0.9,3.6,3.6,5.5,7.2,5.5c2.8,0,5-1,7.4-3.4l6.4,5.3c-3.2,4-7.8,6.7-14.3,6.7C177.4,45.5,170,38.5,170,28.3 M192.6,25.4
		c-0.4-3.7-2.6-6-5.8-6c-3.1,0-5.1,2.3-5.8,6H192.6z">
  </path>
  <path class="st0" d="M30.6,182.7v-0.1c0-9.4,7.2-17.3,17.7-17.3c6.8,0,11.3,2.9,14.2,7.4l-7.8,5.9c-1.7-2.1-3.4-3.5-6.2-3.5
		c-3.8,0-6.6,3.4-6.6,7.4v0.1c0,4.3,2.7,7.5,6.6,7.5c2.8,0,4.6-1.3,6.4-3.4l7.8,5.6c-3.1,4.5-7.5,7.6-14.7,7.6
		C37.9,199.9,30.6,192,30.6,182.7">
  </path>
  <path class="st0" d="M63,182.7v-0.1c0-9.4,7.7-17.3,18.3-17.3c10.6,0,18.3,7.8,18.3,17.2v0.1c0,9.4-7.7,17.3-18.4,17.3
		C70.7,199.9,63,192.1,63,182.7 M88.3,182.7v-0.1c0-4.1-3-7.5-7.1-7.5c-4.2,0-6.9,3.4-6.9,7.4v0.1c0,4,2.9,7.5,7,7.5
		C85.5,190,88.3,186.6,88.3,182.7">
  </path>
  <path class="st0" d="M102.9,165.9h11.6v4.5c2.1-2.8,5.2-5.3,9.9-5.3c4.4,0,7.8,2,9.6,5.4c2.9-3.3,6.2-5.4,11.1-5.4
		c7,0,11.3,4.4,11.3,12.1v21.8h-11.6v-18c0-3.6-1.8-5.6-4.5-5.6s-4.8,2-4.8,5.6v18h-11.6v-18c0-3.6-1.8-5.6-4.6-5.6
		c-2.8,0-4.7,2-4.7,5.6v18h-11.6">
  </path>
  <path class="st0" d="M160.9,165.9h11.6v4.4c2.3-2.8,5.1-5.1,10.1-5.1c7.9,0,14.7,6.6,14.7,17.2v0.1c0,10.8-6.8,17.3-14.6,17.3
		c-5,0-8-2.3-10.1-4.8v13.8h-11.6 M185.9,182.5v-0.1c0-4.4-3.1-7.5-6.8-7.5c-3.8,0-6.8,3.1-6.8,7.5v0.1c0,4.4,3,7.5,6.8,7.5
		C182.8,190.1,185.9,187,185.9,182.5">
  </path>
  <path class="st0" d="M199.2,189.6v-0.1c0-6.9,5.2-10.4,13-10.4c3.1,0,6.1,0.6,8,1.3v-0.6c0-3.5-2.1-5.5-6.6-5.5
		c-3.5,0-6.2,0.7-9.2,1.8L202,168c3.7-1.5,7.7-2.6,13.4-2.6c5.9,0,10,1.4,12.6,4c2.5,2.4,3.6,5.9,3.6,10.5v19.1h-11.5v-3.5
		c-2.3,2.5-5.5,4.2-9.8,4.2C204,199.8,199.2,196.1,199.2,189.6 M220.3,187.1v-1.5c-1.2-0.5-2.9-0.9-4.6-0.9c-3.4,0-5.3,1.6-5.3,4.1
		v0.1c0,2.3,1.7,3.6,4.1,3.6C217.9,192.5,220.3,190.4,220.3,187.1">
  </path>
  <path class="st0" d="M236,165.9h11.6v4.7c2.1-2.8,5.2-5.4,9.9-5.4c7,0,11.3,4.7,11.3,12.2v21.7h-11.6v-18c0-3.7-1.9-5.6-4.7-5.6
		c-2.8,0-4.9,2-4.9,5.6v18H236">
  </path>
  <path class="st0" d="M295,165.9h11.9l-12.1,32.4c-2.9,7.8-6,10.8-12.6,10.8c-4.1,0-7.5-1.1-10.6-2.9l3.6-8.1
		c1.9,1.1,3.8,1.8,5.1,1.8c1.2,0,2-0.3,2.8-1.3l-13-32.5h12.1l6.6,20">
  </path>
  <path class="st0" d="M2.8,51.4h11.6v16.1c2.1-2.8,5.2-5.3,9.9-5.3c7,0,11.3,4.7,11.3,12.2v21.7H24v-18c0-3.7-1.9-5.6-4.7-5.6
		c-2.8,0-4.9,2-4.9,5.6v18H2.8">
  </path>
  <path class="st0" d="M39.9,84.7V63h11.6v18c0,3.6,1.9,5.6,4.7,5.6c2.8,0,4.9-2,4.9-5.6V63h11.6v33.1H61.1v-4.6
		c-2.1,2.8-5.2,5.3-9.9,5.3C44.1,96.9,39.9,92.2,39.9,84.7">
  </path>
  <path class="st0" d="M77.4,63h11.6v4.5c2.1-2.8,5.2-5.3,9.9-5.3c4.4,0,7.8,2,9.6,5.4c2.9-3.3,6.2-5.4,11.1-5.4
		c7,0,11.3,4.4,11.3,12.1v21.8h-11.6v-18c0-3.6-1.8-5.6-4.5-5.6c-2.8,0-4.8,2-4.8,5.6v18H98.4v-18c0-3.6-1.8-5.6-4.6-5.6
		c-2.8,0-4.7,2-4.7,5.6v18H77.4">
  </path>
  <path class="st0" d="M133.8,86.7v-0.1c0-6.9,5.2-10.4,13-10.4c3.1,0,6.1,0.6,8,1.3v-0.6c0-3.5-2.1-5.5-6.6-5.5
		c-3.5,0-6.2,0.7-9.2,1.8l-2.4-8.1c3.7-1.5,7.7-2.6,13.4-2.6c5.9,0,10,1.4,12.6,4c2.5,2.5,3.6,5.9,3.6,10.5v19.1h-11.5v-3.5
		c-2.3,2.5-5.5,4.2-9.8,4.2C138.6,96.9,133.8,93.2,133.8,86.7 M154.9,84.2v-1.5c-1.2-0.5-2.9-0.9-4.6-0.9c-3.4,0-5.3,1.6-5.3,4.1V86
		c0,2.3,1.7,3.6,4.1,3.6C152.5,89.6,154.9,87.5,154.9,84.2">
  </path>
  <path class="st0" d="M170.6,63h11.6v4.7c2.1-2.8,5.2-5.4,9.9-5.4c7,0,11.3,4.7,11.3,12.2v21.7h-11.6v-18c0-3.7-1.9-5.6-4.7-5.6
		c-2.8,0-4.9,2-4.9,5.6v18h-11.6">
  </path>
  <path class="st0" d="M311.3,167.5h-1.9v-1.6h5.7v1.6h-2v5h-1.8 M316.1,165.9h1.9l1.6,2.5l1.6-2.5h1.9v6.6h-1.8v-3.9l-1.7,2.6h-0.1
		l-1.7-2.6v3.9h-1.8V165.9z">
  </path>
 </g>
</svg>